<mxfile host="app.diagrams.net" modified="2024-03-13T17:56:06.785Z" agent="Mozilla/5.0 (Windows NT 10.0; Win64; x64) AppleWebKit/537.36 (KHTML, like Gecko) Chrome/122.0.0.0 Safari/537.36" etag="1tVvQyM6rlRkGHXzER5J" version="24.0.5" type="device">
  <diagram name="Página-1" id="ht4pN6YuI9fOPYq3oQZ5">
    <mxGraphModel dx="880" dy="478" grid="1" gridSize="10" guides="1" tooltips="1" connect="1" arrows="1" fold="1" page="1" pageScale="1" pageWidth="827" pageHeight="1169" math="0" shadow="0">
      <root>
        <mxCell id="0" />
        <mxCell id="1" parent="0" />
        <mxCell id="DJtcQFtfhysB5Z9zYfCu-11" style="edgeStyle=orthogonalEdgeStyle;rounded=0;orthogonalLoop=1;jettySize=auto;html=1;entryX=0.5;entryY=0;entryDx=0;entryDy=0;" edge="1" parent="1" source="DJtcQFtfhysB5Z9zYfCu-1" target="DJtcQFtfhysB5Z9zYfCu-6">
          <mxGeometry relative="1" as="geometry" />
        </mxCell>
        <mxCell id="DJtcQFtfhysB5Z9zYfCu-1" value="Cadastros" style="rounded=0;whiteSpace=wrap;html=1;" vertex="1" parent="1">
          <mxGeometry x="140" y="130" width="120" height="60" as="geometry" />
        </mxCell>
        <mxCell id="DJtcQFtfhysB5Z9zYfCu-12" style="edgeStyle=orthogonalEdgeStyle;rounded=0;orthogonalLoop=1;jettySize=auto;html=1;entryX=0.5;entryY=0;entryDx=0;entryDy=0;" edge="1" parent="1" source="DJtcQFtfhysB5Z9zYfCu-2" target="DJtcQFtfhysB5Z9zYfCu-4">
          <mxGeometry relative="1" as="geometry" />
        </mxCell>
        <mxCell id="DJtcQFtfhysB5Z9zYfCu-2" value="Processos" style="rounded=0;whiteSpace=wrap;html=1;" vertex="1" parent="1">
          <mxGeometry x="340" y="130" width="120" height="60" as="geometry" />
        </mxCell>
        <mxCell id="DJtcQFtfhysB5Z9zYfCu-8" style="edgeStyle=orthogonalEdgeStyle;rounded=0;orthogonalLoop=1;jettySize=auto;html=1;entryX=0.5;entryY=0;entryDx=0;entryDy=0;" edge="1" parent="1" source="DJtcQFtfhysB5Z9zYfCu-3" target="DJtcQFtfhysB5Z9zYfCu-2">
          <mxGeometry relative="1" as="geometry" />
        </mxCell>
        <mxCell id="DJtcQFtfhysB5Z9zYfCu-9" style="edgeStyle=orthogonalEdgeStyle;rounded=0;orthogonalLoop=1;jettySize=auto;html=1;entryX=0.5;entryY=0;entryDx=0;entryDy=0;" edge="1" parent="1" source="DJtcQFtfhysB5Z9zYfCu-3" target="DJtcQFtfhysB5Z9zYfCu-7">
          <mxGeometry relative="1" as="geometry" />
        </mxCell>
        <mxCell id="DJtcQFtfhysB5Z9zYfCu-10" style="edgeStyle=orthogonalEdgeStyle;rounded=0;orthogonalLoop=1;jettySize=auto;html=1;entryX=0.5;entryY=0;entryDx=0;entryDy=0;" edge="1" parent="1" source="DJtcQFtfhysB5Z9zYfCu-3" target="DJtcQFtfhysB5Z9zYfCu-1">
          <mxGeometry relative="1" as="geometry" />
        </mxCell>
        <mxCell id="DJtcQFtfhysB5Z9zYfCu-3" value="Sistema de Notas, Frequência e Aprovação de Alunos&amp;nbsp;" style="rounded=0;whiteSpace=wrap;html=1;" vertex="1" parent="1">
          <mxGeometry x="340" y="40" width="120" height="60" as="geometry" />
        </mxCell>
        <mxCell id="DJtcQFtfhysB5Z9zYfCu-16" style="edgeStyle=orthogonalEdgeStyle;rounded=0;orthogonalLoop=1;jettySize=auto;html=1;entryX=0.5;entryY=0;entryDx=0;entryDy=0;" edge="1" parent="1" source="DJtcQFtfhysB5Z9zYfCu-4" target="DJtcQFtfhysB5Z9zYfCu-14">
          <mxGeometry relative="1" as="geometry" />
        </mxCell>
        <mxCell id="DJtcQFtfhysB5Z9zYfCu-4" value="Lançar Notas e Frequência Alunos" style="rounded=0;whiteSpace=wrap;html=1;" vertex="1" parent="1">
          <mxGeometry x="340" y="220" width="120" height="60" as="geometry" />
        </mxCell>
        <mxCell id="DJtcQFtfhysB5Z9zYfCu-19" style="edgeStyle=orthogonalEdgeStyle;rounded=0;orthogonalLoop=1;jettySize=auto;html=1;entryX=0.5;entryY=0;entryDx=0;entryDy=0;" edge="1" parent="1" source="DJtcQFtfhysB5Z9zYfCu-5" target="DJtcQFtfhysB5Z9zYfCu-18">
          <mxGeometry relative="1" as="geometry" />
        </mxCell>
        <mxCell id="DJtcQFtfhysB5Z9zYfCu-5" value="Consulta Notas e Frequência" style="rounded=0;whiteSpace=wrap;html=1;" vertex="1" parent="1">
          <mxGeometry x="540" y="220" width="120" height="60" as="geometry" />
        </mxCell>
        <mxCell id="DJtcQFtfhysB5Z9zYfCu-17" style="edgeStyle=orthogonalEdgeStyle;rounded=0;orthogonalLoop=1;jettySize=auto;html=1;entryX=0.5;entryY=0;entryDx=0;entryDy=0;" edge="1" parent="1" source="DJtcQFtfhysB5Z9zYfCu-6" target="DJtcQFtfhysB5Z9zYfCu-15">
          <mxGeometry relative="1" as="geometry" />
        </mxCell>
        <mxCell id="DJtcQFtfhysB5Z9zYfCu-6" value="Cadastro Alunos" style="rounded=0;whiteSpace=wrap;html=1;" vertex="1" parent="1">
          <mxGeometry x="140" y="220" width="120" height="60" as="geometry" />
        </mxCell>
        <mxCell id="DJtcQFtfhysB5Z9zYfCu-13" style="edgeStyle=orthogonalEdgeStyle;rounded=0;orthogonalLoop=1;jettySize=auto;html=1;entryX=0.5;entryY=0;entryDx=0;entryDy=0;" edge="1" parent="1" source="DJtcQFtfhysB5Z9zYfCu-7" target="DJtcQFtfhysB5Z9zYfCu-5">
          <mxGeometry relative="1" as="geometry" />
        </mxCell>
        <mxCell id="DJtcQFtfhysB5Z9zYfCu-7" value="Consultas e Relatórios" style="rounded=0;whiteSpace=wrap;html=1;" vertex="1" parent="1">
          <mxGeometry x="540" y="130" width="120" height="60" as="geometry" />
        </mxCell>
        <mxCell id="DJtcQFtfhysB5Z9zYfCu-14" value="Gerar Aprovação Alunos" style="rounded=0;whiteSpace=wrap;html=1;" vertex="1" parent="1">
          <mxGeometry x="340" y="310" width="120" height="60" as="geometry" />
        </mxCell>
        <mxCell id="DJtcQFtfhysB5Z9zYfCu-22" style="edgeStyle=orthogonalEdgeStyle;rounded=0;orthogonalLoop=1;jettySize=auto;html=1;" edge="1" parent="1" source="DJtcQFtfhysB5Z9zYfCu-15" target="DJtcQFtfhysB5Z9zYfCu-20">
          <mxGeometry relative="1" as="geometry" />
        </mxCell>
        <mxCell id="DJtcQFtfhysB5Z9zYfCu-15" value="Cadastro Professores" style="rounded=0;whiteSpace=wrap;html=1;" vertex="1" parent="1">
          <mxGeometry x="140" y="310" width="120" height="60" as="geometry" />
        </mxCell>
        <mxCell id="DJtcQFtfhysB5Z9zYfCu-18" value="Consulta Aprovação" style="rounded=0;whiteSpace=wrap;html=1;" vertex="1" parent="1">
          <mxGeometry x="540" y="310" width="120" height="60" as="geometry" />
        </mxCell>
        <mxCell id="DJtcQFtfhysB5Z9zYfCu-20" value="Cadastro Coordenadores" style="rounded=0;whiteSpace=wrap;html=1;" vertex="1" parent="1">
          <mxGeometry x="140" y="400" width="120" height="60" as="geometry" />
        </mxCell>
      </root>
    </mxGraphModel>
  </diagram>
</mxfile>
